<svg id="visual" viewBox="0 0 700 150" width="700" height="150" xmlns="http://www.w3.org/2000/svg" xmlns:xlink="http://www.w3.org/1999/xlink" version="1.1"><rect x="0" y="0" width="700" height="150" fill="#3273dc"></rect><path d="M0 116L9.7 116.2C19.3 116.3 38.7 116.7 58.2 117.5C77.7 118.3 97.3 119.7 116.8 118.8C136.3 118 155.7 115 175 114C194.3 113 213.7 114 233.2 115.8C252.7 117.7 272.3 120.3 291.8 117.3C311.3 114.3 330.7 105.7 350 106.7C369.3 107.7 388.7 118.3 408.2 120.2C427.7 122 447.3 115 466.8 114.3C486.3 113.7 505.7 119.3 525 119C544.3 118.7 563.7 112.3 583.2 110.8C602.7 109.3 622.3 112.7 641.8 115C661.3 117.3 680.7 118.7 690.3 119.3L700 120L700 0L690.3 0C680.7 0 661.3 0 641.8 0C622.3 0 602.7 0 583.2 0C563.7 0 544.3 0 525 0C505.7 0 486.3 0 466.8 0C447.3 0 427.7 0 408.2 0C388.7 0 369.3 0 350 0C330.7 0 311.3 0 291.8 0C272.3 0 252.7 0 233.2 0C213.7 0 194.3 0 175 0C155.7 0 136.3 0 116.8 0C97.3 0 77.7 0 58.2 0C38.7 0 19.3 0 9.7 0L0 0Z" fill="#68a2dd"></path><path d="M0 83L9.7 85.2C19.3 87.3 38.7 91.7 58.2 93.8C77.7 96 97.3 96 116.8 96.3C136.3 96.7 155.7 97.3 175 98.3C194.3 99.3 213.7 100.7 233.2 100.2C252.7 99.7 272.3 97.3 291.8 93.3C311.3 89.3 330.7 83.7 350 81.8C369.3 80 388.7 82 408.2 85.3C427.7 88.7 447.3 93.3 466.8 96C486.3 98.7 505.7 99.3 525 96.2C544.3 93 563.7 86 583.2 82.7C602.7 79.3 622.3 79.7 641.8 82.8C661.3 86 680.7 92 690.3 95L700 98L700 0L690.3 0C680.7 0 661.3 0 641.8 0C622.3 0 602.7 0 583.2 0C563.7 0 544.3 0 525 0C505.7 0 486.3 0 466.8 0C447.3 0 427.7 0 408.2 0C388.7 0 369.3 0 350 0C330.7 0 311.3 0 291.8 0C272.3 0 252.7 0 233.2 0C213.7 0 194.3 0 175 0C155.7 0 136.3 0 116.8 0C97.3 0 77.7 0 58.2 0C38.7 0 19.3 0 9.7 0L0 0Z" fill="#6096e2"></path><path d="M0 83L9.7 82.5C19.3 82 38.7 81 58.2 77.2C77.7 73.3 97.3 66.7 116.8 63C136.3 59.3 155.7 58.7 175 59C194.3 59.3 213.7 60.7 233.2 64.2C252.7 67.7 272.3 73.3 291.8 72.5C311.3 71.7 330.7 64.3 350 61C369.3 57.7 388.7 58.3 408.2 60C427.7 61.7 447.3 64.3 466.8 67.2C486.3 70 505.7 73 525 75.3C544.3 77.7 563.7 79.3 583.2 76.8C602.7 74.3 622.3 67.7 641.8 68C661.3 68.3 680.7 75.7 690.3 79.3L700 83L700 0L690.3 0C680.7 0 661.3 0 641.8 0C622.3 0 602.7 0 583.2 0C563.7 0 544.3 0 525 0C505.7 0 486.3 0 466.8 0C447.3 0 427.7 0 408.2 0C388.7 0 369.3 0 350 0C330.7 0 311.3 0 291.8 0C272.3 0 252.7 0 233.2 0C213.7 0 194.3 0 175 0C155.7 0 136.3 0 116.8 0C97.3 0 77.7 0 58.2 0C38.7 0 19.3 0 9.7 0L0 0Z" fill="#6289e4"></path><path d="M0 47L9.7 45C19.3 43 38.7 39 58.2 38.7C77.7 38.3 97.3 41.7 116.8 41.7C136.3 41.7 155.7 38.3 175 40.5C194.3 42.7 213.7 50.3 233.2 51C252.7 51.7 272.3 45.3 291.8 44.2C311.3 43 330.7 47 350 46.3C369.3 45.7 388.7 40.3 408.2 39.5C427.7 38.7 447.3 42.3 466.8 45.2C486.3 48 505.7 50 525 51.8C544.3 53.7 563.7 55.3 583.2 55.8C602.7 56.3 622.3 55.7 641.8 52.8C661.3 50 680.7 45 690.3 42.5L700 40L700 0L690.3 0C680.7 0 661.3 0 641.8 0C622.3 0 602.7 0 583.2 0C563.7 0 544.3 0 525 0C505.7 0 486.3 0 466.8 0C447.3 0 427.7 0 408.2 0C388.7 0 369.3 0 350 0C330.7 0 311.3 0 291.8 0C272.3 0 252.7 0 233.2 0C213.7 0 194.3 0 175 0C155.7 0 136.3 0 116.8 0C97.3 0 77.7 0 58.2 0C38.7 0 19.3 0 9.7 0L0 0Z" fill="#6d7ae3"></path><path d="M0 18L9.7 19.3C19.3 20.7 38.7 23.3 58.2 22.7C77.7 22 97.3 18 116.8 15.8C136.3 13.7 155.7 13.3 175 15.5C194.3 17.7 213.7 22.3 233.2 25C252.7 27.7 272.3 28.3 291.8 28.3C311.3 28.3 330.7 27.7 350 28.5C369.3 29.3 388.7 31.7 408.2 32C427.7 32.3 447.3 30.7 466.8 27C486.3 23.3 505.7 17.7 525 15.8C544.3 14 563.7 16 583.2 18.7C602.7 21.3 622.3 24.7 641.8 27.5C661.3 30.3 680.7 32.7 690.3 33.8L700 35L700 0L690.3 0C680.7 0 661.3 0 641.8 0C622.3 0 602.7 0 583.2 0C563.7 0 544.3 0 525 0C505.7 0 486.3 0 466.8 0C447.3 0 427.7 0 408.2 0C388.7 0 369.3 0 350 0C330.7 0 311.3 0 291.8 0C272.3 0 252.7 0 233.2 0C213.7 0 194.3 0 175 0C155.7 0 136.3 0 116.8 0C97.3 0 77.7 0 58.2 0C38.7 0 19.3 0 9.7 0L0 0Z" fill="#7d68dd"></path></svg>