<svg width="28" height="28" viewBox="0 0 28 28" fill="none" xmlns="http://www.w3.org/2000/svg">
<g clip-path="url(#clip0_28_12)">
<path d="M28 14C28 6.26801 21.732 0 14 0C6.26801 0 0 6.26801 0 14C0 21.732 6.26801 28 14 28C21.732 28 28 21.732 28 14Z" fill="#C51137"/>
<path d="M23 9.01111L19.1696 11.0222C14.2081 9.09267 13.7901 9.09267 8.8302 11.0222L5 9.01111L8.8302 7C13.7901 8.92957 14.2081 8.92957 19.1696 7L23 9.01111Z" fill="white"/>
<path d="M23 13.9815L19.1696 15.9926C14.2081 14.063 13.7901 14.063 8.8302 15.9926L5 13.9815L8.8302 11.9708C13.7901 13.9004 14.2081 13.9004 19.1696 11.9708L23 13.9815Z" fill="white"/>
<path d="M23 18.9504L19.1696 20.9615C14.2081 19.0319 13.7901 19.0319 8.8302 20.9615L5 18.9504L8.8302 16.9412C13.7901 18.8708 14.2081 18.8708 19.1696 16.9412L23 18.9504Z" fill="white"/>
</g>
<defs>
<clipPath id="clip0_28_12">
<rect width="28" height="28" fill="white"/>
</clipPath>
</defs>
</svg>
