<svg width="28" height="28" viewBox="0 0 28 28" fill="none" xmlns="http://www.w3.org/2000/svg">
<g clip-path="url(#clip0_28_69)">
<path d="M28 14C28 6.26801 21.732 0 14 0C6.26801 0 0 6.26801 0 14C0 21.732 6.26801 28 14 28C21.732 28 28 21.732 28 14Z" fill="black"/>
<path d="M12.2658 15.815C12.2658 18.8565 10.9985 19.8281 8.63292 19.8281C5.92935 19.8281 5 18.4763 5 15.646V8H6.77422V15.5615C6.77422 16.5754 6.68973 18.5186 8.63292 18.5186C10.2382 18.5186 10.4916 17.378 10.4916 15.646V8.04224H12.2658V15.815Z" fill="white"/>
<path d="M17.9265 9.39403V19.6591H16.1101V9.39403H13.4065V8H20.5879V9.39403H17.9265Z" fill="white"/>
<path d="M22.8587 18.9323C22.8587 19.4392 22.4363 19.8616 21.9294 19.8616C21.4224 19.8616 21 19.4392 21 18.9323C21 18.4253 21.4224 18.0029 21.9294 18.0029C22.4363 17.9607 22.8587 18.3831 22.8587 18.9323Z" fill="white"/>
</g>
<defs>
<clipPath id="clip0_28_69">
<rect width="28" height="28" fill="white"/>
</clipPath>
</defs>
</svg>
